#!OML:ASF F:\VICON\USERDATA\INSTALL\rory3\rory3.ASF
:FULLY-SPECIFIED
:DEGREES
1
root 0.663583 18.0401 -17.9943 -1.79352 -3.16594 -5.65891
lowerback 13.2197 0.137229 3.42181
upperback -0.186183 0.905344 2.49193
thorax -7.62426 0.359048 0.538268
lowerneck -16.1622 -3.14918 -2.2761
upperneck 22.0065 -3.74248 -0.235595
head 9.67771 -1.9583 -0.18944
rclavicle -7.45443e-016 5.96354e-016
rhumerus -28.2727 -19.5053 -77.8289
rradius 23.2195
rwrist 5.00267
rhand -14.5917 14.6357
rfingers 7.12502
rthumb 11.5585 -15.0256
lclavicle -7.45443e-016 5.96354e-016
lhumerus -31.8404 3.76184 80.8296
lradius 26.8253
lwrist 6.43368
lhand -26.9775 21.8689
lfingers 7.12502
lthumb -0.398369 51.8483
rfemur -9.51395 7.67472 33.2215
rtibia 30.7555
rfoot -15.4845 -3.82468
rtoes 11.0108
lfemur -25.6838 2.04023 -14.1177
ltibia 67.5193
lfoot -4.51292 -3.44674
ltoes -6.18982
2
root 0.663274 18.0276 -17.8243 -1.7223 -3.12798 -5.80106
lowerback 13.1429 0.167713 3.69015
upperback -0.0227893 0.972099 2.44754
thorax -7.39926 0.384367 0.326183
lowerneck -16.825 -3.12001 -2.13596
upperneck 22.1829 -3.72429 -0.22762
head 9.861 -1.93424 -0.220823
rclavicle 5.75233e-015 1.49089e-015
rhumerus -27.3544 -19.1858 -78.3501
rradius 23.5919
rwrist 4.79937
rhand -16.3197 26.0137
rfingers 7.12502
rthumb 9.89176 -3.73389
lclavicle 5.75233e-015 1.49089e-015
lhumerus -31.6736 3.87094 80.8645
lradius 26.6573
lwrist 5.96183
lhand -26.8294 22.5662
lfingers 7.12502
lthumb -0.255332 52.5458
rfemur -8.95346 7.55691 33.4329
rtibia 30.7889
rfoot -15.9805 -4.04958
rtoes 11.2954
lfemur -26.6278 1.79957 -13.9786
ltibia 66.2482
lfoot -5.00169 -2.83649
ltoes -5.13895
3
root 0.663854 18.0033 -17.6568 -1.66139 -3.07125 -5.86789
lowerback 13.1124 0.139123 3.72333
upperback -0.137479 0.950533 2.54949
thorax -7.50737 0.372476 0.420828
lowerneck -16.1857 -3.03162 -2.32559
upperneck 21.9127 -3.56994 -0.204954
head 9.6489 -1.87837 -0.147378
rclavicle 6.06293e-015 7.35503e-015
rhumerus -27.1097 -18.1529 -78.5963
rradius 24.5651
rwrist 4.94691
rhand -17.0905 28.4431
rfingers 7.12502
rthumb 9.14804 -1.33848
lclavicle 6.06293e-015 7.35503e-015
lhumerus -32.2231 4.37407 80.9207
lradius 26.4781
lwrist 5.48645
lhand -26.5181 22.1631
lfingers 7.12502
lthumb 0.0453883 52.1429
rfemur -8.51402 7.45163 33.5632
rtibia 31.0709
rfoot -16.6791 -4.2199
rtoes 11.5478
lfemur -27.5049 1.69026 -13.9698
ltibia 65.0944
lfoot -5.72721 -2.09066
ltoes -5.63235
4
root 0.669984 17.9728 -17.4839 -1.64027 -3.18385 -5.92206
lowerback 13.0879 0.207123 3.91573
upperback -0.192912 1.06965 2.52524
thorax -7.54723 0.421574 0.264174
lowerneck -15.7486 -3.03573 -2.34884
upperneck 21.7309 -3.58307 -0.195183
head 9.50421 -1.88657 -0.132694
rclavicle -9.0944e-015 -2.48481e-014
rhumerus -26.8886 -17.1563 -78.9599
rradius 25.0459
rwrist 3.52916
rhand -14.77 10.2093
rfingers 7.12502
rthumb 11.3866 -19.4615
lclavicle -9.0944e-015 -2.48481e-014
lhumerus -32.7461 4.48761 80.9964
lradius 26.3345
lwrist 5.56424
lhand -26.7613 21.846
lfingers 7.12502
lthumb -0.189518 51.8256
rfemur -7.95711 7.34335 33.6552
rtibia 31.1757
rfoot -17.4171 -4.15791
rtoes 10.9511
lfemur -28.164 1.6978 -13.9787
ltibia 63.7836
lfoot -6.48955 -1.26724
ltoes -6.7817
5
root 0.675825 17.9529 -17.3028 -1.59337 -3.65923 -6.05532
lowerback 12.9254 0.438337 4.25748
upperback -0.0977252 1.40606 2.42256
thorax -7.33473 0.574358 -0.100376
lowerneck -15.7084 -3.1437 -2.19065
upperneck 21.6255 -3.75629 -0.272862
head 9.45632 -1.96269 -0.205949
rclavicle 2.15743e-014 2.87244e-014
rhumerus -26.3842 -16.6005 -79.3894
rradius 25.3937
rwrist 2.41003
rhand -14.7586 14.9241
rfingers 7.12502
rthumb 11.3975 -14.7461
lclavicle 2.15743e-014 2.87244e-014
lhumerus -32.8958 4.48758 80.982
lradius 26.0126
lwrist 5.6211
lhand -26.6593 21.3774
lfingers 7.12502
lthumb -0.0909964 51.3572
rfemur -7.30956 7.56879 33.8541
rtibia 31.1476
rfoot -17.998 -4.08865
rtoes 10.456
lfemur -28.7124 1.93164 -13.8571
ltibia 62.2017
lfoot -6.99763 -0.596708
ltoes -7.33547
6
root 0.679835 17.9519 -17.1251 -1.44154 -4.01162 -6.28167
lowerback 12.6645 0.614543 4.68741
upperback 0.0580951 1.67263 2.33964
thorax -6.99767 0.695239 -0.475607
lowerneck -15.9479 -3.22065 -1.97264
upperneck 21.5282 -3.8991 -0.331744
head 9.46154 -2.0167 -0.28361
rclavicle -7.33018e-016 -1.2921e-014
rhumerus -25.671 -16.1402 -79.8265
rradius 25.8649
rwrist 1.767
rhand -15.6702 20.8528
rfingers 7.12502
rthumb 10.5183 -8.86407
lclavicle -7.33018e-016 -1.2921e-014
lhumerus -32.8341 4.61473 80.9266
lradius 25.7064
lwrist 5.50802
lhand -26.778 21.3534
lfingers 7.12502
lthumb -0.205698 51.333
rfemur -6.6601 7.70911 34.1181
rtibia 30.9067
rfoot -18.4474 -3.99399
rtoes 10.1747
lfemur -29.2639 2.02209 -13.618
ltibia 60.283
lfoot -7.16207 0.0536049
ltoes -6.54964
7
root 0.680703 17.9593 -16.9488 -1.31091 -4.22362 -6.39777
lowerback 12.5851 0.727259 4.81615
upperback 0.05455 1.83813 2.37298
thorax -6.94737 0.773048 -0.541202
lowerneck -15.9809 -3.22429 -1.98406
upperneck 21.6031 -3.89615 -0.349987
head 9.4938 -2.01803 -0.289096
rclavicle 1.10388e-014 1.16289e-014
rhumerus -25.2898 -15.3564 -80.0585
rradius 26.5088
rwrist 1.00629
rhand -16.3379 23.7157
rfingers 7.12502
rthumb 9.87418 -6.03274
lclavicle 1.10388e-014 1.16289e-014
lhumerus -33.0806 4.71797 81.0743
lradius 25.5767
lwrist 5.49883
lhand -26.8187 21.9973
lfingers 7.12502
lthumb -0.244944 51.9769
rfemur -5.87746 7.67551 34.2505
rtibia 30.4488
rfoot -18.7859 -3.96669
rtoes 9.84519
lfemur -29.6357 1.94923 -13.4797
ltibia 57.9906
lfoot -7.15755 0.896603
ltoes -5.75711
